<svg xmlns="http://www.w3.org/2000/svg" viewBox="0 0 32 32"><defs><clipPath id="prefix__clip-path"><path class="prefix__cls-1" d="M29.48 25.24c-.16-1.89-.08-1.5-.24-3.16a72.24 72.24 0 00-2-10.37L26 6.25l-2.6 5.41-.44.89q-.24.48-.54 1a20.43 20.43 0 01-1.24 1.84 20.08 20.08 0 01-3.08 3.24 19.72 19.72 0 01-3.87 2.53c-.72.33-1.45.71-2.23 1-.34.14-1.19.44-1.93.66a2.55 2.55 0 01-1.07-.3c-.34-1-.83-2.24-1.2-3.19-.5-1.25-1-2.5-1.51-3.73a59.11 59.11 0 00-3.62-7.25 59.82 59.82 0 001.51 7.94c.3 1.3.7 2.58 1.05 3.87S6 22.71 6.44 24a1.4 1.4 0 001.29.93c1.28 0 2.57.06 3.86.05s2.59 0 3.88-.11a56 56 0 007.79-.87c-1.92-.49-7.5-.81-10.79-1.06a43 43 0 006.53-1.7 24.06 24.06 0 005.38-3.45c.71-.62 1.21 1.88 2.39 5.27.62 1.69.34 1 1 2.66s1.37 4.38 2.17 6c-.07-1.82-.31-4.67-.46-6.48z"/></clipPath><clipPath id="prefix__clip-path-2"><path class="prefix__cls-1" d="M20.92 3.46a4.25 4.25 0 01.31 5.86 3.91 3.91 0 01-5.66.24 4.25 4.25 0 01-.31-5.86 3.91 3.91 0 015.66-.24m1.35-1.54a5.89 5.89 0 00-8.53.36 6.41 6.41 0 00.48 8.83 5.91 5.91 0 008.53-.36 6.41 6.41 0 00-.48-8.83z"/></clipPath><style>.prefix__cls-1{fill:#3e3a39}@media (prefers-color-scheme:dark){.prefix__cls-1{fill:#efefef}}</style></defs><g style="isolation:isolate"><g id="prefix__layer_1" data-name="layer 1"><path class="prefix__cls-1" d="M29.48 25.24c-.16-1.89-.08-1.5-.24-3.16a72.24 72.24 0 00-2-10.37L26 6.25l-2.6 5.41-.44.89q-.24.48-.54 1a20.43 20.43 0 01-1.24 1.84 20.08 20.08 0 01-3.08 3.24 19.72 19.72 0 01-3.87 2.53c-.72.33-1.45.71-2.23 1-.34.14-1.19.44-1.93.66a2.55 2.55 0 01-1.07-.3c-.34-1-.83-2.24-1.2-3.19-.5-1.25-1-2.5-1.51-3.73a59.11 59.11 0 00-3.62-7.25 59.82 59.82 0 001.51 7.94c.3 1.3.7 2.58 1.05 3.87S6 22.71 6.44 24a1.4 1.4 0 001.29.93c1.28 0 2.57.06 3.86.05s2.59 0 3.88-.11a56 56 0 007.79-.87c-1.92-.49-7.5-.81-10.79-1.06a43 43 0 006.53-1.7 24.06 24.06 0 005.38-3.45c.71-.62 1.21 1.88 2.39 5.27.62 1.69.34 1 1 2.66s1.37 4.38 2.17 6c-.07-1.82-.31-4.67-.46-6.48z"/><g clip-path="url(#prefix__clip-path)"><path class="prefix__cls-1" d="M-.87-.78h34.42v33.07H-.87z"/></g><path class="prefix__cls-1" d="M20.92 3.46a4.25 4.25 0 01.31 5.86 3.91 3.91 0 01-5.66.24 4.25 4.25 0 01-.31-5.86 3.91 3.91 0 015.66-.24m1.35-1.54a5.89 5.89 0 00-8.53.36 6.41 6.41 0 00.48 8.83 5.91 5.91 0 008.53-.36 6.41 6.41 0 00-.48-8.83z"/><g clip-path="url(#prefix__clip-path-2)"><path class="prefix__cls-1" d="M-.87-.78h34.42v33.07H-.87z"/></g></g></g></svg>