<svg width="2500" height="2500" viewBox="0 0 2500 2500" fill="none" xmlns="http://www.w3.org/2000/svg">
<g filter="url(#filter0_d_57_2)">
<path fill-rule="evenodd" clip-rule="evenodd" d="M1250 2230V1790.4C1250 1763.88 1260.54 1738.44 1279.29 1719.69L1719.69 1279.29C1738.44 1260.54 1763.88 1250 1790.4 1250H2230C2241.05 1250 2250 1258.95 2250 1270V1708.24C2250 1734.76 2239.46 1760.2 2220.71 1778.95L1778.95 2220.71C1760.2 2239.46 1734.76 2250 1708.24 2250H1270C1258.95 2250 1250 2241.05 1250 2230Z" fill="#3655D2"/>
</g>
<path fill-rule="evenodd" clip-rule="evenodd" d="M250 2230V1790.4C250 1763.88 260.536 1738.44 279.289 1719.69L719.691 1279.29C738.445 1260.54 763.88 1250 790.402 1250H1230C1241.05 1250 1250 1258.95 1250 1270V1708.24C1250 1734.76 1239.46 1760.2 1220.71 1778.95L778.949 2220.71C760.196 2239.46 734.76 2250 708.239 2250H270C258.954 2250 250 2241.05 250 2230Z" fill="#3655D2"/>
<path fill-rule="evenodd" clip-rule="evenodd" d="M250 1230V790.402C250 763.88 260.536 738.445 279.289 719.691L719.691 279.289C738.445 260.536 763.88 250 790.402 250H1230C1241.05 250 1250 258.954 1250 270V708.239C1250 734.76 1239.46 760.196 1220.71 778.949L778.949 1220.71C760.196 1239.46 734.76 1250 708.239 1250H270C258.954 1250 250 1241.05 250 1230Z" fill="#3655D2"/>
<path fill-rule="evenodd" clip-rule="evenodd" d="M1250 1230V790.402C1250 763.88 1260.54 738.445 1279.29 719.691L1719.69 279.289C1738.44 260.536 1763.88 250 1790.4 250H2230C2241.05 250 2250 258.954 2250 270V708.239C2250 734.76 2239.46 760.196 2220.71 778.949L1778.95 1220.71C1760.2 1239.46 1734.76 1250 1708.24 1250H1270C1258.95 1250 1250 1241.05 1250 1230Z" fill="#3655D2"/>
<defs>
<filter id="filter0_d_57_2" x="1246" y="1250" width="1008" height="1008" filterUnits="userSpaceOnUse" color-interpolation-filters="sRGB">
<feFlood flood-opacity="0" result="BackgroundImageFix"/>
<feColorMatrix in="SourceAlpha" type="matrix" values="0 0 0 0 0 0 0 0 0 0 0 0 0 0 0 0 0 0 127 0" result="hardAlpha"/>
<feOffset dy="4"/>
<feGaussianBlur stdDeviation="2"/>
<feComposite in2="hardAlpha" operator="out"/>
<feColorMatrix type="matrix" values="0 0 0 0 0 0 0 0 0 0 0 0 0 0 0 0 0 0 0.25 0"/>
<feBlend mode="normal" in2="BackgroundImageFix" result="effect1_dropShadow_57_2"/>
<feBlend mode="normal" in="SourceGraphic" in2="effect1_dropShadow_57_2" result="shape"/>
</filter>
</defs>
</svg>
