<?xml version="1.0" standalone="no"?><!DOCTYPE svg PUBLIC "-//W3C//DTD SVG 1.1//EN" "http://www.w3.org/Graphics/SVG/1.1/DTD/svg11.dtd"><svg height="500" legacy-metrics="false" node-id="1" sillyvg="true" template-height="500" template-width="500" version="1.1" viewBox="0 0 500 500" width="500" xmlns="http://www.w3.org/2000/svg" xmlns:xlink="http://www.w3.org/1999/xlink"><defs node-id="192"></defs><g node-id="425"><path d="M 325.90 272.20 C 341.80 231.70 373.40 197.40 413.10 179.30 C 432.70 170.30 464.10 165.70 475.40 189.70 C 485.00 209.90 478.60 235.00 462.50 249.70 C 446.40 264.50 423.00 270.60 401.50 268.10 C 400.10 267.90 400.10 270.10 401.50 270.30 C 421.90 272.60 443.70 267.30 460.00 254.60 C 477.50 241.00 485.40 219.10 480.30 197.40 C 475.10 175.50 453.70 166.60 432.70 170.40 C 408.60 174.80 385.60 190.50 367.90 206.90 C 348.50 224.80 333.30 247.00 323.70 271.60 C 323.20 273.00 325.40 273.50 325.90 272.20 L 325.90 272.20 Z" fill="#659feb" fill-opacity="0.4" fill-rule="nonzero" group-id="1" node-id="200" stroke-linecap="butt" stroke-opacity="0.4" stroke-width="1" target-height="103.37262" target-width="158.12589" target-x="323.65927" target-y="169.5607"></path><path d="M 333.60 272.60 C 354.10 238.70 382.60 207.50 420.00 194.50 C 427.20 192.00 434.80 190.20 442.30 191.00 C 449.80 191.80 457.40 195.40 461.40 201.80 C 465.30 208.10 465.40 216.20 463.60 223.40 C 460.40 236.10 451.70 246.90 441.20 254.80 C 430.70 262.70 418.50 267.90 406.20 272.40" fill="#659feb" fill-opacity="0.4" fill-rule="nonzero" group-id="1" node-id="202" stroke-linecap="butt" stroke-opacity="0.4" stroke-width="1" target-height="81.783325" target-width="131.08737" target-x="333.6" target-y="190.81668"></path><path d="M 334.50 273.10 C 350.60 246.60 371.10 221.80 398.10 205.90 C 412.00 197.70 431.60 188.10 448.00 193.30 C 468.90 199.90 465.40 223.90 455.50 238.50 C 444.00 255.60 424.60 264.50 405.90 271.50 C 404.60 272.00 405.20 274.10 406.50 273.60 C 424.30 267.00 442.30 258.80 454.50 243.70 C 463.70 232.30 471.30 213.20 461.40 199.90 C 449.80 184.40 427.50 190.00 412.50 196.30 C 396.80 202.90 382.70 212.80 370.30 224.40 C 355.50 238.30 343.20 254.70 332.70 272.10 C 331.90 273.20 333.80 274.40 334.50 273.10 L 334.50 273.10 Z" fill="#659feb" fill-opacity="0.4" fill-rule="nonzero" group-id="1" node-id="204" stroke-linecap="butt" stroke-opacity="0.4" stroke-width="1" target-height="83.74443" target-width="133.53976" target-x="332.50647" target-y="189.91853"></path><path d="M 299.40 333.10 C 302.20 347.50 308.50 361.10 319.80 370.80 C 329.30 378.90 341.10 383.50 353.30 385.80 C 366.60 388.20 382.10 389.20 394.70 383.60 C 411.00 376.40 415.00 359.40 421.00 344.30 C 428.50 325.50 440.60 305.50 461.10 299.50 C 462.50 299.10 461.90 297.00 460.50 297.40 C 446.10 301.60 435.80 312.40 428.20 325.00 C 424.20 331.60 420.80 338.70 418.00 345.90 C 415.00 353.90 412.50 362.30 407.80 369.50 C 397.80 384.80 379.30 386.40 362.70 384.90 C 350.20 383.80 337.60 380.40 326.90 373.50 C 312.60 364.10 304.60 349.10 301.40 332.60 C 301.30 331.10 299.10 331.70 299.40 333.10 L 299.40 333.10 Z" fill="#659feb" fill-opacity="0.4" fill-rule="nonzero" group-id="1" node-id="206" stroke-linecap="butt" stroke-opacity="0.4" stroke-width="1" target-height="90.327484" target-width="162.47775" target-x="299.4" target-y="297.39355"></path><path d="M 310.50 273.30 C 310.60 274.20 309.60 274.90 308.80 274.60 C 301.20 251.70 302.30 227.00 301.20 202.90 C 300.00 178.80 295.90 153.30 280.00 135.10 C 273.30 127.40 264.10 121.10 253.80 120.60 C 243.60 120.10 232.60 126.80 230.90 136.90 C 230.20 140.80 230.90 144.70 231.20 148.60 C 231.70 155.70 231.00 162.80 229.00 169.60 C 228.40 171.80 227.50 174.10 225.80 175.70 C 221.20 179.90 213.80 176.80 207.80 178.60 C 203.80 179.80 200.80 183.40 198.90 187.10 C 195.30 194.30 195.00 202.90 197.00 210.70 C 199.00 218.50 203.10 225.70 208.10 232.10 C 222.40 250.70 243.90 263.50 267.00 267.40" fill="#659feb" fill-opacity="0.4" fill-rule="nonzero" group-id="1" node-id="208" stroke-linecap="butt" stroke-opacity="0.4" stroke-width="1" target-height="154.05011" target-width="114.69148" target-x="195.80852" target-y="120.6"></path><path d="M 309.40 273.00 C 309.60 272.20 308.40 269.80 308.20 269.00 C 307.70 267.20 307.30 265.40 306.90 263.60 C 305.90 258.90 305.10 254.10 304.50 249.30 C 303.60 241.60 303.20 233.90 303.00 226.10 C 302.50 211.70 302.50 197.40 300.50 183.10 C 297.20 159.80 287.30 130.40 263.00 121.30 C 253.20 117.60 241.60 119.30 234.40 127.40 C 231.00 131.20 229.50 135.90 229.50 141.00 C 229.60 148.90 230.70 156.20 229.20 164.10 C 228.40 168.40 227.40 174.00 223.10 176.00 C 219.80 177.60 215.70 176.70 212.20 176.80 C 207.30 177.00 203.30 178.90 200.30 182.90 C 192.50 193.00 193.90 207.60 198.70 218.60 C 210.40 245.20 238.90 263.50 266.80 268.40 C 268.20 268.60 268.80 266.50 267.40 266.30 C 242.90 262.00 220.10 248.00 206.10 227.30 C 198.20 215.50 192.80 198.90 201.00 185.80 C 205.30 179.00 211.00 179.20 218.10 179.10 C 222.40 179.00 226.20 177.90 228.50 174.00 C 234.50 163.80 231.50 151.10 231.80 140.10 C 232.10 125.30 248.50 118.80 261.00 122.90 C 285.40 130.80 295.20 160.90 298.30 183.60 C 302.50 213.90 298.10 245.20 307.70 274.70 C 307.90 275.20 308.30 275.50 308.80 275.50 C 310.40 275.50 311.10 274.90 311.60 273.40 C 312.00 272.20 309.80 271.60 309.40 273.00 L 309.40 273.00 Z" fill="#659feb" fill-opacity="0.4" fill-rule="nonzero" group-id="1" node-id="210" stroke-linecap="butt" stroke-opacity="0.4" stroke-width="1" target-height="156.06296" target-width="116.786194" target-x="194.81519" target-y="119.437035"></path><path d="M 222.00 165.70 C 200.40 164.40 185.20 184.80 186.90 205.20 C 188.90 228.50 207.60 244.60 228.10 252.70 C 229.40 253.20 230.00 251.10 228.70 250.60 C 210.00 243.20 192.80 228.90 189.40 208.10 C 186.20 188.10 200.20 166.70 221.90 167.90 C 223.40 168.00 223.40 165.80 222.00 165.70 L 222.00 165.70 Z" fill="#659feb" fill-opacity="0.4" fill-rule="nonzero" group-id="1" node-id="212" stroke-linecap="butt" stroke-opacity="0.4" stroke-width="1" target-height="87.04921" target-width="42.62625" target-x="186.78485" target-y="165.7"></path><path d="M 262.50 257.20 C 249.40 253.80 227.50 261.10 214.00 261.50 C 200.50 261.90 186.50 266.40 177.20 276.20 C 173.00 280.60 169.90 287.30 172.90 292.60 C 174.00 294.50 175.80 296.00 177.70 297.10 C 188.10 303.20 201.20 300.70 212.90 303.20 C 217.80 304.30 223.10 306.90 224.40 311.70 C 226.10 317.80 220.60 324.30 222.60 330.30 C 223.70 333.70 227.20 336.00 230.70 336.70 C 234.20 337.40 237.90 336.60 241.40 335.60 C 249.40 333.20 257.10 329.20 262.90 323.20 C 268.70 317.10 272.40 308.90 272.20 300.50 C 272.00 294.10 293.90 260.80 291.20 255.10" fill="#659feb" fill-opacity="0.4" fill-rule="nonzero" group-id="1" node-id="214" stroke-linecap="butt" stroke-opacity="0.4" stroke-width="1" target-height="81.86395" target-width="119.67268" target-x="171.74162" target-y="255.1"></path><path d="M 262.80 256.20 C 252.00 253.70 240.50 256.50 229.90 258.40 C 218.40 260.40 206.30 260.00 195.20 263.80 C 185.70 267.10 174.50 273.70 171.30 283.90 C 167.60 295.70 180.30 300.80 189.70 302.20 C 200.70 303.80 227.30 300.70 223.00 318.80 C 222.00 323.30 219.90 327.90 222.30 332.30 C 224.30 336.00 228.60 337.90 232.60 338.20 C 244.00 338.90 257.50 331.30 264.90 323.00 C 268.10 319.30 270.70 315.00 272.10 310.30 C 273.40 306.20 272.70 301.80 274.10 297.80 C 277.00 289.30 282.20 281.50 286.20 273.50 C 288.40 269.10 294.30 260.30 292.30 255.10 C 291.80 253.80 289.70 254.40 290.20 255.70 C 291.80 260.00 286.50 267.90 284.80 271.50 C 281.60 277.90 278.20 284.10 275.10 290.50 C 274.00 292.70 272.90 295.00 272.10 297.30 C 271.00 300.40 271.50 303.50 270.80 306.80 C 268.50 318.70 259.10 327.50 248.40 332.30 C 242.40 335.00 233.80 338.30 227.60 334.70 C 220.30 330.50 225.10 322.70 225.80 316.50 C 226.80 307.80 219.30 303.60 211.70 302.20 C 200.80 300.20 188.20 302.50 178.30 296.50 C 162.10 286.60 184.60 270.40 194.30 266.70 C 205.00 262.60 216.40 263.10 227.50 261.20 C 238.70 259.30 250.90 255.90 262.20 258.50 C 263.60 258.60 264.20 256.50 262.80 256.20 L 262.80 256.20 Z" fill="#659feb" fill-opacity="0.4" fill-rule="nonzero" group-id="1" node-id="216" stroke-linecap="butt" stroke-opacity="0.4" stroke-width="1" target-height="83.81116" target-width="121.99794" target-x="170.70195" target-y="254.38885"></path><path d="M 220.80 303.50 C 221.60 314.20 211.30 323.80 213.20 334.60 C 215.20 346.00 230.50 349.10 240.00 348.20 C 270.30 345.10 284.90 314.60 287.10 287.60 C 287.20 286.20 285.00 286.20 284.90 287.60 C 282.80 313.30 269.30 342.50 240.70 345.90 C 229.40 347.30 212.50 342.30 216.10 328.00 C 218.10 320.10 223.80 312.00 223.10 303.60 C 222.90 302.10 220.70 302.10 220.80 303.50 L 220.80 303.50 Z" fill="#659feb" fill-opacity="0.4" fill-rule="nonzero" group-id="1" node-id="218" stroke-linecap="butt" stroke-opacity="0.4" stroke-width="1" target-height="61.793" target-width="74.12096" target-x="212.97905" target-y="286.55002"></path><path d="M 287.30 262.90 C 291.20 272.60 310.40 336.30 315.60 345.20 C 319.00 351.00 322.70 356.60 327.70 361.10 C 333.20 366.00 339.90 369.30 346.70 372.10 C 356.30 376.20 367.70 379.60 376.70 374.50 C 384.50 370.10 388.20 360.40 387.80 351.40 C 387.50 342.40 375.30 268.70 371.70 260.40" fill="#659feb" fill-opacity="0.4" fill-rule="nonzero" group-id="1" node-id="220" stroke-linecap="butt" stroke-opacity="0.4" stroke-width="1" target-height="116.65558" target-width="100.5" target-x="287.3" target-y="260.4"></path><path d="M 286.20 263.20 C 292.30 278.80 296.70 295.20 302.00 311.20 C 307.60 328.20 312.20 347.10 325.10 360.20 C 330.40 365.50 337.00 369.10 343.80 372.10 C 350.10 374.90 356.60 377.50 363.50 378.10 C 376.50 379.20 386.30 370.80 388.50 358.20 C 389.60 352.10 388.50 346.00 387.60 339.90 C 386.30 330.90 384.90 322.00 383.40 313.00 C 381.60 302.00 379.60 290.90 377.50 280.00 C 376.20 273.50 375.40 266.30 372.90 260.20 C 372.40 258.90 370.20 259.50 370.80 260.80 C 372.70 265.30 373.40 270.50 374.40 275.30 C 376.10 283.70 377.60 292.10 379.10 300.60 C 381.90 316.40 384.80 332.30 386.50 348.20 C 387.70 359.00 384.10 371.40 372.80 375.10 C 365.20 377.60 356.50 375.00 349.30 372.10 C 341.70 369.10 333.90 365.50 327.90 359.80 C 314.80 347.50 310.30 329.20 304.90 312.80 C 299.40 296.20 294.80 279.00 288.40 262.70 C 287.80 261.30 285.70 261.90 286.20 263.20 L 286.20 263.20 Z" fill="#659feb" fill-opacity="0.4" fill-rule="nonzero" group-id="1" node-id="222" stroke-linecap="butt" stroke-opacity="0.4" stroke-width="1" target-height="118.6788" target-width="102.79877" target-x="286.15137" target-y="259.48886"></path><path d="M 360.80 238.30 C 365.50 229.60 370.30 220.70 372.60 211.00 C 374.90 201.30 374.60 190.60 369.50 182.10 C 368.50 180.40 367.20 178.70 365.50 177.80 C 363.80 176.80 361.40 176.70 359.90 177.90 C 358.60 178.90 358.10 180.50 357.60 182.10 C 356.40 186.00 355.20 189.80 354.00 193.70 C 353.80 194.50 353.50 195.30 352.90 195.90 C 351.50 197.20 349.20 196.70 347.70 195.40 C 346.30 194.20 345.30 192.40 343.90 191.20 C 340.10 188.00 333.90 189.40 330.60 193.10 C 327.30 196.90 335.90 260.20 336.10 265.20" fill="#659feb" fill-opacity="0.4" fill-rule="nonzero" group-id="1" node-id="224" stroke-linecap="butt" stroke-opacity="0.4" stroke-width="1" target-height="88.175" target-width="44.09668" target-x="329.8551" target-y="177.02501"></path><path d="M 361.70 238.90 C 370.50 222.70 380.40 203.00 372.00 184.50 C 369.90 179.90 363.60 171.90 358.30 178.00 C 356.00 180.60 355.50 185.20 354.50 188.50 C 353.90 190.50 353.10 195.60 350.10 195.50 C 348.00 195.40 345.70 191.10 343.90 189.90 C 339.80 187.10 331.90 188.20 329.40 192.90 C 328.30 195.10 328.70 198.40 328.70 200.80 C 328.90 212.40 330.40 224.10 331.60 235.60 C 332.70 245.40 334.40 255.40 334.90 265.20 C 335.00 266.60 337.20 266.60 337.10 265.20 C 336.30 248.40 333.10 231.60 331.70 214.80 C 331.30 210.40 331.00 205.90 330.90 201.50 C 330.80 199.40 330.30 195.90 331.30 193.90 C 332.20 192.30 334.90 191.10 336.60 190.80 C 340.20 190.00 342.70 191.60 345.00 194.10 C 346.60 195.80 348.20 197.90 350.90 197.80 C 356.20 197.60 357.00 187.80 358.10 184.10 C 358.30 183.40 358.60 181.80 359.00 181.30 C 361.70 181.00 364.30 180.80 367.00 180.50 C 367.80 181.40 368.40 182.40 369.00 183.40 C 370.30 185.70 371.20 188.20 371.90 190.80 C 373.30 196.20 373.20 202.00 372.30 207.50 C 370.40 218.40 365.10 228.20 359.90 237.80 C 359.10 239.00 361.10 240.10 361.70 238.90 L 361.70 238.90 Z" fill="#659feb" fill-opacity="0.4" fill-rule="nonzero" group-id="1" node-id="226" stroke-linecap="butt" stroke-opacity="0.4" stroke-width="1" target-height="90.4547" target-width="46.534393" target-x="328.63748" target-y="175.7953"></path></g><g node-id="426"><path d="M 164.10 190.00 C 189.20 209.90 232.10 178.50 232.10 178.50 L 240.90 170.90 C 251.60 166.20 255.10 162.40 255.10 162.40 L 248.10 165.60 L 256.40 159.00 C 256.60 158.80 255.60 159.00 255.40 159.10 L 247.60 163.10 L 255.60 156.00 C 255.80 155.80 255.60 155.60 255.40 155.70 L 246.00 161.00 C 246.00 161.00 253.50 154.10 252.30 154.20 C 251.10 154.40 241.20 161.30 241.20 161.30 C 241.20 161.30 245.30 154.70 244.00 155.00 C 243.20 155.20 240.10 159.20 238.00 162.00 C 236.60 163.80 237.00 164.40 235.10 165.50 L 221.00 174.00 C 209.10 181.30 187.90 186.90 172.00 173.70 C 172.00 173.70 165.90 170.50 160.70 176.90 C 155.40 183.40 164.10 190.00 164.10 190.00 Z" fill="#ffa47a" fill-rule="nonzero" group-id="2" node-id="231" stroke="#ffa47a" stroke-linecap="round" stroke-width="1.0363" target-height="42.414764" target-width="97.40469" target-x="158.9953" target-y="154.2"></path><path d="M 200.80 180.80 C 191.30 182.10 183.70 179.20 171.90 173.80 C 171.90 173.80 165.80 170.60 160.60 177.00 C 155.40 183.40 164.10 190.00 164.10 190.00 C 172.50 196.70 178.10 199.90 188.30 198.10 L 200.80 180.80 Z" fill="#ff7f4d" fill-rule="nonzero" group-id="2" node-id="233" stroke="#ff7f4d" stroke-linecap="butt" stroke-width="0.4182" target-height="25.572662" target-width="41.846878" target-x="158.95313" target-y="173"></path><path d="M 201.40 180.80 L 196.40 195.80 C 196.40 195.80 192.50 196.70 190.10 196.70 L 201.40 180.80 Z" fill="#cf5540" fill-rule="nonzero" group-id="2" node-id="235" stroke="none" target-height="15.899994" target-width="11.299988" target-x="190.1" target-y="180.8"></path><path d="M 235.90 164.40 C 236.30 165.10 236.60 166.20 236.20 166.50 C 235.70 166.80 234.70 166.10 234.30 165.50" fill="#cf5540" fill-rule="nonzero" group-id="2" node-id="237" stroke="none" target-height="2.158844" target-width="2.0720062" target-x="234.3" target-y="164.4"></path><path d="M 242.90 159.60 C 242.90 159.60 241.80 162.80 241.80 162.70 L 246.30 157.40 L 242.90 159.60 Z" fill="#cf5540" fill-rule="nonzero" group-id="2" node-id="239" stroke="none" target-height="5.300003" target-width="4.5" target-x="241.8" target-y="157.4"></path><path d="M 157.30 114.30 C 164.70 116.60 183.30 141.70 183.30 141.70 C 185.90 143.90 188.90 148.50 189.80 152.80 C 190.10 154.40 189.00 159.10 187.80 160.00 L 163.00 180.20 C 163.00 180.20 143.10 173.10 147.90 157.70 C 152.70 142.30 156.80 145.60 154.40 136.80 C 152.10 128.00 157.30 114.30 157.30 114.30 Z" fill="#00043b" fill-rule="nonzero" group-id="2" node-id="241" stroke="none" target-height="65.899994" target-width="42.65773" target-x="147.1855" target-y="114.3"></path><path d="M 188.80 151.10 C 185.50 142.30 181.20 135.00 175.30 127.70 C 170.80 122.10 165.30 117.90 159.80 113.40 C 159.40 113.00 158.70 113.70 159.20 114.00 C 164.10 118.00 169.30 121.90 173.40 126.70 C 179.80 134.30 184.40 142.00 188.00 151.30 C 188.10 151.90 189.00 151.60 188.80 151.10 L 188.80 151.10 Z" fill="#00043b" fill-rule="nonzero" group-id="2" node-id="243" stroke="none" target-height="38.32956" target-width="29.773544" target-x="159.02646" target-y="113.28294"></path><path d="M 172.50 153.90 C 172.40 154.10 172.10 154.10 172.00 153.90 C 171.40 153.20 169.90 151.90 168.10 153.30 C 166.20 154.70 168.20 157.30 168.80 158.50 C 169.60 160.20 170.20 165.50 168.30 169.80 C 167.00 172.90 161.60 178.50 161.60 178.50 C 161.60 178.50 168.90 186.70 174.30 183.10 C 174.30 183.10 174.80 171.50 176.60 169.20 C 176.60 169.20 181.20 171.90 186.40 164.10 C 191.30 156.80 186.40 152.20 185.30 151.30 C 184.30 150.50 179.80 146.20 172.50 153.90 Z" fill="#ffa47a" fill-rule="nonzero" group-id="2" node-id="245" stroke="none" target-height="34.60884" target-width="26.889633" target-x="161.6" target-y="149.41249"></path><path d="M 174.70 178.40 C 174.50 178.40 167.20 182.00 167.20 182.00 C 167.20 182.00 170.60 185.50 174.40 183.10 L 174.70 178.40 Z" fill="#cf5540" fill-rule="nonzero" group-id="2" node-id="247" stroke="none" target-height="5.5462646" target-width="7.5" target-x="167.2" target-y="178.4"></path><path d="M 184.70 166.00 L 180.60 163.70 C 180.60 163.70 180.50 166.30 181.80 166.70 C 183.20 167.20 184.70 166.00 184.70 166.00 Z" fill="#ffffff" fill-rule="nonzero" group-id="2" node-id="249" stroke="none" target-height="3.0999603" target-width="4.099991" target-x="180.6" target-y="163.7"></path><path d="M 171.30 155.00 C 170.80 154.40 169.70 154.20 169.10 154.70 C 168.50 155.20 168.70 156.40 169.20 157.00" fill="#cf5540" fill-rule="nonzero" group-id="2" node-id="251" stroke="none" target-height="2.5625153" target-width="2.5625153" target-x="168.73749" target-y="154.43748"></path><path d="M 184.60 162.40 L 183.20 164.40 L 184.30 164.90 C 184.50 165.00 184.70 164.80 184.70 164.60 L 184.60 162.40 Z" fill="#cf5540" fill-rule="nonzero" group-id="2" node-id="253" stroke="none" target-height="2.5" target-width="1.5" target-x="183.2" target-y="162.4"></path><path d="M 188.60 154.90 C 188.60 154.90 176.70 157.40 171.90 153.90 C 167.20 150.40 179.40 141.20 183.90 146.70 C 188.60 152.10 188.60 154.90 188.60 154.90 Z" fill="#00043b" fill-rule="nonzero" group-id="2" node-id="255" stroke="none" target-height="10.753799" target-width="17.745132" target-x="170.85487" target-y="145.0008"></path><path d="M 176.70 169.30 C 176.70 169.30 174.00 168.10 172.50 165.10 C 171.70 163.40 171.70 171.60 175.30 173.50 C 175.30 173.40 176.00 171.20 176.70 169.30 Z" fill="#cf5540" fill-rule="nonzero" group-id="2" node-id="257" stroke="none" target-height="8.616165" target-width="4.620285" target-x="172.07971" target-y="164.88383"></path><path d="M 183.00 157.80 C 182.50 157.90 183.70 157.00 184.30 157.10 C 184.90 157.20 185.30 157.80 185.10 158.30 C 185.10 158.30 184.20 157.70 183.00 157.80 Z" fill="#00043b" fill-rule="nonzero" group-id="2" node-id="259" stroke="none" target-height="1.199997" target-width="2.251068" target-x="182.89285" target-y="157.1"></path><path d="M 188.40 159.50 C 187.90 159.10 187.30 159.10 186.90 159.50 C 186.90 159.50 187.60 159.70 188.20 160.40" fill="#00043b" fill-rule="nonzero" group-id="2" node-id="261" stroke="none" target-height="1.1998901" target-width="1.5" target-x="186.9" target-y="159.2001"></path><path d="M 182.84 161.16 L 183.23 160.68 L 183.55 160.62 L 183.70 160.90 L 183.56 161.51 L 183.17 161.99 L 182.85 162.06 L 182.70 161.77 L 182.84 161.16 Z" fill="#00043b" fill-rule="nonzero" group-id="2" node-id="263" stroke-linecap="butt" stroke-width="1.0000254" target-height="1.4411011" target-width="0.9966736" target-x="182.70401" target-y="160.6152"></path><path d="M 185.47 162.41 L 185.82 162.00 L 186.14 161.95 L 186.30 162.23 L 186.19 162.76 L 185.84 163.17 L 185.53 163.22 L 185.37 162.94 L 185.47 162.41 Z" fill="#00043b" fill-rule="nonzero" group-id="2" node-id="265" stroke-linecap="butt" stroke-width="0.9999353" target-height="1.2608337" target-width="0.9329529" target-x="185.36569" target-y="161.95499"></path><g node-id="428"><path d="M 180.10 162.10 C 180.10 163.37 179.07 164.40 177.80 164.40 C 176.53 164.40 175.50 163.37 175.50 162.10 C 175.50 160.83 176.53 159.80 177.80 159.80 C 179.07 159.80 180.10 160.83 180.10 162.10 Z" fill="#e8632e" fill-opacity="0.37" fill-rule="nonzero" group-id="2,4" node-id="269" stroke="#e8632e" stroke-linecap="butt" stroke-opacity="0.37" stroke-width="0.223" target-height="4.599991" target-width="4.600006" target-x="175.5" target-y="159.8"></path></g><path d="M 170.20 151.30 C 172.80 154.20 174.90 157.40 179.10 157.30 C 182.90 157.30 186.80 155.90 189.70 153.50 C 190.10 153.20 189.50 152.70 189.20 153.00 C 186.40 155.40 182.80 156.40 179.20 156.40 C 175.10 156.40 173.20 153.50 170.80 150.80 C 170.40 150.50 169.80 151.00 170.20 151.30 L 170.20 151.30 Z" fill="#00043b" fill-rule="nonzero" group-id="2" node-id="272" stroke="none" target-height="6.5903473" target-width="19.7641" target-x="170.06877" target-y="150.70966"></path><path d="M 66.10 187.80 C 65.30 182.30 64.80 168.50 64.80 168.50 L 41.00 169.80 C 44.00 171.30 54.60 177.90 54.60 177.90 L 56.50 188.50 C 56.50 188.50 66.10 187.70 66.10 187.80 Z" fill="#ffa47a" fill-rule="nonzero" group-id="2" node-id="274" stroke="none" target-height="20" target-width="25.099998" target-x="41" target-y="168.5"></path><path d="M 54.60 177.90 L 40.70 170.10 C 40.10 169.80 40.20 168.80 40.90 168.70 C 46.70 167.80 62.20 165.50 66.30 164.90 C 66.80 164.80 67.20 165.30 67.10 165.80 C 66.70 168.60 66.10 176.20 65.70 178.50 C 65.60 178.90 61.10 173.20 59.50 174.10 C 58.20 174.90 54.70 177.90 54.60 177.90 Z" fill="#659feb" fill-rule="nonzero" group-id="2" node-id="276" stroke="#659feb" stroke-linecap="butt" stroke-width="0.223" target-height="13.600006" target-width="26.787498" target-x="40.3125" target-y="164.9"></path><path d="M 53.80 177.50 L 56.00 174.60 C 56.50 173.90 56.40 172.90 55.70 172.40 L 55.70 172.40 C 55.00 171.90 54.00 172.00 53.50 172.70 L 51.00 176.00" fill="none" group-id="2" node-id="278" stroke="#f8f1ee" stroke-linecap="butt" stroke-width="0.5085" target-height="5.400009" target-width="5.300003" target-x="51" target-y="172.09999"></path><path d="M 61.80 181.40 C 61.90 184.70 62.20 188.00 62.20 188.00 L 66.30 187.80 L 65.80 178.50 C 65.80 178.50 62.40 174.70 61.90 174.70 C 61.50 174.70 61.60 178.10 61.80 181.40" fill="#cf5540" fill-rule="nonzero" group-id="2" node-id="280" stroke="none" target-height="13.300003" target-width="4.6518555" target-x="61.648148" target-y="174.7"></path><path d="M 49.10 232.40 C 45.40 228.70 41.80 217.60 41.80 217.60 C 41.80 217.60 16.60 225.10 16.80 225.20 C 17.00 225.30 32.10 230.90 32.10 230.90 L 41.30 237.80 C 41.30 237.80 48.30 232.80 49.10 232.40 Z" fill="#ffa47a" fill-rule="nonzero" group-id="2" node-id="282" stroke="#ffa47a" stroke-linecap="butt" stroke-width="0.9153" target-height="20.199997" target-width="32.3" target-x="16.8" target-y="217.6"></path><path d="M 31.60 231.20 L 16.60 225.60 C 15.90 225.40 15.90 224.40 16.60 224.20 C 22.20 222.50 37.20 218.00 41.20 216.90 C 41.70 216.80 42.60 217.50 42.70 218.00 C 43.60 221.00 45.40 225.80 46.20 227.40 C 46.40 227.70 37.20 225.80 35.80 226.90 C 34.60 227.90 32.00 231.50 31.60 231.20 Z" fill="#659feb" fill-rule="nonzero" group-id="2" node-id="284" stroke="#659feb" stroke-linecap="butt" stroke-width="0.223" target-height="14.300003" target-width="30.125002" target-x="16.074999" target-y="216.9"></path><path d="M 30.40 230.60 L 31.90 226.90 C 32.20 226.10 31.80 225.20 31.00 224.80 L 31.00 224.80 C 30.20 224.50 29.30 224.90 28.90 225.70 L 27.40 229.50" fill="none" group-id="2" node-id="286" stroke="#f8f1ee" stroke-linecap="butt" stroke-width="0.5085" target-height="5.8983765" target-width="4.5983524" target-x="27.4" target-y="224.70163"></path><path d="M 43.40 236.80 L 33.80 229.00 L 31.60 231.20 L 41.40 238.30 Z" fill="#cf5540" fill-rule="nonzero" group-id="2" node-id="288" stroke="none" target-height="9.300003" target-width="11.800001" target-x="31.6" target-y="229"></path><path d="M 142.20 214.10 C 145.20 215.30 147.40 217.80 148.50 223.00 C 149.60 228.20 154.80 219.70 154.70 225.00 C 152.70 226.10 141.50 240.50 137.70 242.10 C 120.70 249.20 107.70 252.20 91.10 248.90 C 74.90 245.60 65.60 227.10 60.90 214.90 C 57.20 205.30 57.20 197.40 55.50 187.50 C 56.00 186.40 65.60 186.10 66.10 186.50 C 72.60 206.80 81.70 218.10 94.00 220.40 C 105.50 222.60 113.70 220.80 122.10 218.10 C 122.10 218.10 131.50 210.00 142.20 214.10 Z" fill="#365185" fill-rule="nonzero" group-id="2" node-id="290" stroke="#365185" stroke-linecap="butt" stroke-width="0.2121" target-height="63.8649" target-width="99.2" target-x="55.5" target-y="186.33281"></path><path d="M 94.00 220.40 C 105.50 222.60 113.70 220.80 122.10 218.10 C 122.10 218.10 131.50 210.00 142.20 214.00 C 145.20 215.20 147.40 217.70 148.50 222.90 C 149.60 228.10 154.50 220.20 154.40 225.40 C 152.40 226.50 141.50 240.30 137.70 241.90" fill="#365185" fill-opacity="0.43" fill-rule="nonzero" group-id="2,5" node-id="294" stroke-linecap="butt" stroke-opacity="0.43" stroke-width="1" target-height="29.00064" target-width="60.399994" target-x="94" target-y="212.89935"></path><path d="M 153.70 223.00 C 148.40 218.10 138.20 210.20 137.40 210.80 C 128.20 211.90 119.30 219.10 115.20 226.90 C 114.40 228.40 113.40 229.80 112.30 231.10 C 107.10 236.90 101.30 241.90 91.60 245.60 C 79.90 250.10 65.60 246.00 49.40 232.20 C 47.60 234.10 41.30 237.10 41.50 238.30 C 48.10 245.80 52.20 252.10 60.50 258.30 C 71.00 266.20 88.60 277.10 104.10 271.30 C 118.10 266.10 129.60 257.60 138.80 245.60 L 153.70 223.00 Z" fill="#4465a6" fill-rule="nonzero" group-id="2" node-id="297" stroke="#4465a6" stroke-linecap="butt" stroke-width="0.2121" target-height="62.111496" target-width="112.2" target-x="41.5" target-y="210.8"></path><path d="M 136.80 247.90 C 136.80 247.90 90.10 293.50 42.10 237.80 C 42.10 237.80 53.20 257.10 76.10 267.70 C 77.20 267.00 101.00 287.60 136.80 247.90 Z" fill="#4465a6" fill-opacity="0.5" fill-rule="nonzero" group-id="2,6" node-id="301" stroke-linecap="butt" stroke-opacity="0.5" stroke-width="1" target-height="34.624985" target-width="94.700005" target-x="42.1" target-y="237.8"></path><path d="M 174.70 179.40 C 175.00 180.00 177.30 196.60 174.10 202.20 C 171.90 205.90 159.80 217.10 154.40 223.90 C 154.40 223.90 143.40 217.10 137.20 211.10 C 138.90 204.60 144.70 179.60 156.60 173.10 C 156.60 173.10 161.90 174.30 164.00 175.20 C 163.90 175.10 170.40 186.10 174.70 179.40 Z" fill="#ffa47a" fill-rule="nonzero" group-id="2" node-id="304" stroke="#ffa47a" stroke-linecap="round" stroke-width="1.0363" target-height="50.799988" target-width="38.58" target-x="137.2" target-y="173.1"></path><path d="M 137.60 207.40 L 137.10 209.40 L 150.50 221.10 Z" fill="#cf5540" fill-rule="nonzero" group-id="2" node-id="306" stroke="none" target-height="13.700012" target-width="13.399994" target-x="137.1" target-y="207.4"></path><path d="M 174.70 179.40 C 175.00 180.00 177.30 196.60 174.10 202.20 C 171.90 205.90 159.80 217.10 154.40 223.90 C 154.40 223.90 151.00 221.60 136.00 204.80 C 137.70 198.30 144.80 179.70 156.60 173.10 C 156.60 173.10 161.90 174.30 164.00 175.20 C 163.90 175.10 170.40 186.10 174.70 179.40 Z" fill="#f8f1ee" fill-rule="nonzero" group-id="2" node-id="308" stroke="#f8f1ee" stroke-linecap="butt" stroke-width="1.0363" target-height="50.799988" target-width="39.78" target-x="136" target-y="173.1"></path><path d="M 154.30 223.90 C 154.30 223.90 150.90 221.60 135.90 204.80 C 137.60 198.30 144.70 179.70 156.50 173.10 C 156.50 173.10 161.80 174.30 163.90 175.20" fill="#f8f1ee" fill-rule="nonzero" group-id="2" node-id="310" stroke="#f8f1ee" stroke-linecap="round" stroke-width="1.0363" target-height="50.799988" target-width="28" target-x="135.9" target-y="173.1"></path><path d="M 280.20 331.10 L 378.10 373.30 C 382.10 375.00 386.70 373.40 388.80 369.60 L 451.50 252.50 C 454.00 247.90 453.90 242.70 449.00 241.00 C 449.00 241.00 427.70 221.70 390.20 210.80 C 379.30 207.70 344.10 204.60 344.10 204.60 L 280.20 331.10 Z" fill="none" group-id="2" node-id="312" stroke="#f8f1ee" stroke-linecap="round" stroke-width="0.7449" target-height="169.34482" target-width="172.90024" target-x="280.2" target-y="204.6"></path><path d="M 284.60 332.90 L 192.10 278.90 C 188.40 276.70 187.00 272.00 188.80 268.10 L 244.10 150.00 C 246.30 145.30 251.60 144.90 256.50 146.70 C 271.90 152.40 285.60 149.50 316.50 173.40 C 325.40 180.30 348.70 207.00 348.70 207.00 L 284.60 332.90 Z" fill="none" group-id="2" node-id="314" stroke="#f8f1ee" stroke-linecap="round" stroke-width="0.7449" target-height="187.18889" target-width="160.66667" target-x="188.03334" target-y="145.7111"></path><path d="M 445.90 242.60 C 445.90 242.60 425.40 224.00 389.30 213.60 C 379.30 210.70 347.80 207.90 345.10 207.60 C 342.20 204.30 322.50 181.90 314.50 175.70 C 284.80 152.70 271.60 155.50 256.80 150.10 C 252.10 148.40 247.00 148.70 244.90 153.30 L 191.80 266.80 C 190.00 270.60 191.40 275.10 194.90 277.20 L 283.60 329.00 L 283.70 329.00 L 377.60 370.00 C 381.40 371.60 385.90 370.10 387.90 366.40 L 448.20 253.70 C 450.70 249.30 450.60 244.30 445.90 242.60 Z" fill="#2e4470" fill-rule="nonzero" group-id="2" node-id="316" stroke="#2e4470" stroke-linecap="butt" stroke-width="0.2121" target-height="221.45183" target-width="258.73773" target-x="191.02148" target-y="149.15184"></path><path d="M 278.40 326.40 L 288.50 331.70 L 351.10 208.40 C 351.10 208.40 345.70 208.40 340.90 203.80 L 278.40 326.40 Z" fill="#1d2b47" fill-rule="nonzero" group-id="2" node-id="318" stroke="#1d2b47" stroke-linecap="butt" stroke-width="0.2121" target-height="127.90001" target-width="72.70001" target-x="278.4" target-y="203.8"></path><path d="M 439.10 247.00 C 439.10 247.00 396.80 216.50 343.70 210.50 C 307.60 171.30 258.30 155.20 258.30 155.20 L 199.30 269.80 C 211.10 273.00 275.50 316.70 285.10 324.40 L 285.00 324.60 C 285.10 324.60 285.30 324.60 285.40 324.70 C 285.80 325.00 286.10 325.30 286.20 325.40 L 286.50 324.90 C 295.80 326.90 338.60 339.90 381.10 362.20 L 439.10 247.00 Z" fill="#cfb2a3" fill-rule="nonzero" group-id="2" node-id="320" stroke="none" target-height="207.00002" target-width="239.8" target-x="199.3" target-y="155.2"></path><path d="M 314.20 187.30 C 314.20 187.30 319.90 170.60 331.60 165.80 C 332.30 165.50 333.00 166.00 333.10 166.70 L 333.40 170.40 L 337.80 171.00 C 338.70 171.10 339.00 172.20 338.40 172.80 C 334.00 176.90 322.40 188.90 322.70 193.30 L 314.20 187.30 Z" fill="#ff7f4d" fill-rule="nonzero" group-id="2" node-id="322" stroke="#ff7f4d" stroke-linecap="butt" stroke-width="0.4182" target-height="27.583725" target-width="24.487244" target-x="314.2" target-y="165.71628"></path><path d="M 317.00 187.30 C 317.90 184.90 318.60 182.70 320.00 180.50 C 321.40 178.30 323.10 176.20 324.90 174.30 C 325.60 173.50 324.40 172.40 323.80 173.20 C 322.00 175.30 320.20 177.40 318.70 179.80 C 317.30 182.10 316.50 184.50 315.50 187.00 C 315.10 187.80 316.60 188.30 317.00 187.30 L 317.00 187.30 Z" fill="#f2fcf9" fill-opacity="0.76" fill-rule="nonzero" group-id="2,7" node-id="326" stroke-linecap="butt" stroke-opacity="0.76" stroke-width="1" target-height="14.880463" target-width="9.605469" target-x="315.5" target-y="172.94455"></path><path d="M 327.30 171.40 C 327.90 170.90 328.60 170.30 329.20 169.80 C 330.00 169.10 328.80 168.00 328.10 168.70 C 327.50 169.20 326.80 169.80 326.20 170.30 C 325.30 171.00 326.50 172.10 327.30 171.40 L 327.30 171.40 Z" fill="#f2fcf9" fill-opacity="0.76" fill-rule="nonzero" group-id="2,7" node-id="328" stroke-linecap="butt" stroke-opacity="0.76" stroke-width="1" target-height="3.1245575" target-width="3.5422363" target-x="325.90662" target-y="168.48793"></path><path d="M 260.40 159.40 C 268.50 157.40 268.70 159.00 276.80 161.00 C 284.90 163.10 290.60 165.30 297.80 169.50 C 304.40 173.40 312.50 178.80 318.00 184.20 C 326.90 192.90 334.90 200.80 343.20 210.10 L 285.00 322.20 C 285.00 322.20 229.90 256.00 204.60 268.30 L 260.40 159.40 Z" fill="#f8f1ee" fill-rule="nonzero" group-id="2" node-id="331" stroke="none" target-height="163.69766" target-width="138.6" target-x="204.6" target-y="158.50235"></path><path d="M 260.50 160.10 C 265.30 159.00 268.70 159.40 273.30 160.80 C 279.00 162.50 284.60 163.90 290.10 166.30 C 299.80 170.70 309.20 176.90 316.90 184.20 C 325.00 191.80 332.30 200.10 340.20 207.90 C 342.80 210.50 342.70 209.60 341.20 212.50 C 332.40 229.40 323.60 246.30 314.90 263.20 C 305.60 281.10 296.30 299.10 287.00 317.00 C 286.20 318.50 285.40 320.10 284.60 321.60 C 284.30 322.30 285.70 322.10 285.20 321.50 C 284.70 320.80 284.10 320.20 283.60 319.60 C 277.70 312.80 271.50 306.20 265.10 299.90 C 255.20 290.20 244.60 280.60 232.60 273.50 C 224.50 268.70 213.70 263.50 204.30 267.80 C 204.60 268.10 204.90 268.40 205.20 268.70 C 221.50 236.90 237.80 205.10 254.10 173.30 C 256.40 168.80 258.70 164.30 261.00 159.80 C 261.40 159.10 260.30 158.40 259.90 159.20 C 243.60 191.00 227.30 222.80 211.00 254.60 C 208.70 259.10 206.40 263.60 204.10 268.10 C 203.80 268.70 204.40 269.20 205.00 269.00 C 213.00 265.30 222.40 269.40 229.60 273.30 C 239.20 278.60 247.80 285.60 255.80 293.00 C 266.00 302.20 275.70 312.20 284.60 322.80 C 284.90 323.10 285.40 323.00 285.60 322.70 C 302.60 290.00 319.60 257.30 336.60 224.60 C 339.00 219.90 341.50 215.30 343.90 210.60 C 344.00 210.30 344.00 210.10 343.80 209.80 C 331.30 195.90 318.30 181.60 302.40 171.60 C 295.50 167.20 288.30 163.80 280.40 161.50 C 273.30 159.40 267.70 157.20 260.30 159.00 C 259.40 159.00 259.80 160.20 260.50 160.10 Z" fill="#f8f1ee" fill-rule="nonzero" group-id="2" node-id="333" stroke="none" target-height="164.59354" target-width="139.93178" target-x="204.03142" target-y="158.38147"></path><path d="M 373.10 351.30 C 348.30 335.40 320.20 325.70 291.00 322.70 C 290.20 322.60 290.20 323.90 291.00 324.00 C 320.00 326.90 347.90 336.60 372.50 352.40 C 373.20 352.90 373.80 351.80 373.10 351.30 L 373.10 351.30 Z" fill="#f8f1ee" fill-rule="nonzero" group-id="2" node-id="335" stroke="none" target-height="29.806976" target-width="83.00299" target-x="290.40002" target-y="322.7"></path><path d="M 285.90 324.50 C 317.60 330.90 349.00 342.00 377.10 358.00 C 377.80 358.40 378.40 357.30 377.70 356.90 C 349.50 340.80 318.00 329.70 286.20 323.20 C 285.50 323.10 285.20 324.30 285.90 324.50 L 285.90 324.50 Z" fill="#f8f1ee" fill-rule="nonzero" group-id="2" node-id="337" stroke="none" target-height="34.851013" target-width="92.47684" target-x="285.525" target-y="323.2"></path><path d="M 207.90 269.00 C 221.50 271.40 234.60 280.50 245.70 288.30 C 257.50 296.50 268.30 306.00 278.10 316.50 C 278.70 317.10 279.50 316.20 279.00 315.60 C 269.10 305.00 258.20 295.50 246.40 287.20 C 235.20 279.40 222.00 270.20 208.30 267.80 C 207.50 267.60 207.10 268.90 207.90 269.00 L 207.90 269.00 Z" fill="#f8f1ee" fill-rule="nonzero" group-id="2" node-id="339" stroke="none" target-height="48.89676" target-width="71.65428" target-x="207.50002" target-y="267.8"></path><path d="M 204.70 269.60 C 234.70 282.90 262.40 302.50 286.30 325.00 C 286.90 325.60 287.80 324.70 287.20 324.10 C 263.20 301.60 235.50 281.90 205.30 268.50 C 204.60 268.20 203.90 269.30 204.70 269.60 L 204.70 269.60 Z" fill="#f8f1ee" fill-rule="nonzero" group-id="2" node-id="341" stroke="none" target-height="56.696777" target-width="83.04129" target-x="204.3555" target-y="268.5"></path><path d="M 435.20 248.50 C 420.50 276.10 405.90 303.80 391.20 331.40 C 390.80 332.10 391.90 332.80 392.30 332.00 C 407.00 304.40 421.60 276.70 436.30 249.10 C 436.70 248.40 435.60 247.80 435.20 248.50 L 435.20 248.50 Z" fill="#f8f1ee" fill-rule="nonzero" group-id="2" node-id="343" stroke="none" target-height="84.14749" target-width="45.2023" target-x="391.1487" target-y="248.19812"></path><path d="M 433.50 246.90 C 430.40 239.20 429.00 239.90 422.50 234.60 C 416.10 229.30 410.90 225.90 403.30 222.60 C 396.30 219.50 387.10 216.20 379.50 214.90 C 367.30 212.80 356.20 211.40 343.90 210.20 L 285.00 322.90 C 285.00 322.90 374.20 330.90 379.10 358.60 L 433.50 246.90 Z" fill="#f8f1ee" fill-rule="nonzero" group-id="2" node-id="345" stroke="none" target-height="148.40001" target-width="148.5" target-x="285" target-y="210.2"></path><path d="M 434.10 246.80 C 431.80 241.20 428.80 238.80 424.10 235.20 C 417.10 229.80 410.30 225.00 402.10 221.50 C 383.60 213.60 363.70 211.70 343.90 209.70 C 343.70 209.70 343.40 209.80 343.40 210.00 C 326.20 242.90 309.00 275.80 291.80 308.70 C 289.40 313.30 286.90 318.00 284.50 322.60 C 284.30 323.00 284.60 323.50 285.00 323.50 C 294.80 324.40 304.60 325.90 314.30 327.70 C 331.00 330.80 348.70 334.50 363.70 342.80 C 370.00 346.30 377.00 351.20 378.50 358.80 C 378.60 359.30 379.40 359.40 379.70 359.00 C 395.60 326.40 411.50 293.70 427.40 261.10 C 429.60 256.50 431.90 251.90 434.10 247.40 C 434.50 246.70 433.40 246.00 433.00 246.80 C 417.10 279.40 401.20 312.10 385.30 344.70 C 383.10 349.30 380.80 353.90 378.60 358.40 C 379.00 358.50 379.40 358.50 379.80 358.60 C 378.10 349.90 369.50 344.40 362.20 340.70 C 351.50 335.30 339.70 332.10 328.10 329.40 C 317.50 327.00 306.70 325.10 295.90 323.70 C 292.90 323.30 289.70 322.50 286.70 322.60 C 286.20 322.60 285.70 322.50 285.20 322.50 C 286.60 322.70 285.00 323.80 286.10 322.70 C 287.40 321.40 288.30 318.50 289.10 316.90 C 290.90 313.40 292.80 309.90 294.60 306.30 C 300.00 296.00 305.30 285.70 310.70 275.50 C 320.80 256.20 330.90 236.90 341.00 217.60 C 341.90 215.90 342.90 212.60 344.30 211.30 C 345.30 210.40 351.80 212.00 353.50 212.20 C 360.60 213.00 367.60 214.00 374.70 215.10 C 387.10 217.10 399.50 220.90 410.50 227.20 C 415.50 230.10 419.90 233.80 424.50 237.30 C 428.50 240.40 431.00 242.70 433.00 247.50 C 433.20 247.90 434.40 247.50 434.10 246.80 Z" fill="#f8f1ee" fill-rule="nonzero" group-id="2" node-id="347" stroke="none" target-height="149.53749" target-width="149.65125" target-x="284.5" target-y="209.7"></path><path d="M 342.60 210.40 C 342.60 210.40 307.70 267.90 287.90 275.80 C 260.60 286.80 225.60 269.60 225.60 269.60 C 225.60 269.60 279.10 304.10 285.00 322.20 L 342.60 210.40 Z" fill="#e0cfc8" fill-opacity="0.42" fill-rule="nonzero" group-id="2,8" node-id="351" stroke-linecap="butt" stroke-opacity="0.42" stroke-width="1" target-height="111.80002" target-width="117" target-x="225.6" target-y="210.4"></path><path d="M 347.80 209.40 C 347.80 209.40 323.00 271.90 328.60 292.50 C 336.30 320.90 371.20 338.50 371.20 338.50 C 371.20 338.50 311.40 316.70 293.40 322.90 L 347.80 209.40 Z" fill="#e0cfc8" fill-opacity="0.42" fill-rule="nonzero" group-id="2,9" node-id="356" stroke-linecap="butt" stroke-opacity="0.42" stroke-width="1" target-height="129.1" target-width="77.80002" target-x="293.4" target-y="209.4"></path><path d="M 263.60 172.10 C 263.60 172.10 264.50 172.00 265.80 172.10 C 266.50 172.20 267.20 172.30 268.00 172.50 C 268.40 172.60 268.80 172.70 269.20 172.80 C 269.60 172.90 270.00 173.10 270.40 173.20 C 270.80 173.40 271.20 173.50 271.60 173.70 C 272.00 173.80 272.40 174.10 272.70 174.20 C 273.40 174.60 274.10 174.90 274.60 175.30 C 275.70 176.00 276.30 176.70 276.30 176.70 L 276.20 176.80 C 276.20 176.80 275.40 176.50 274.20 176.10 C 273.00 175.70 271.40 175.10 269.80 174.50 C 268.20 173.90 266.60 173.30 265.40 172.90 C 264.20 172.40 263.40 172.10 263.40 172.10 L 263.60 172.10 Z" fill="#659feb" fill-opacity="0.46" fill-rule="nonzero" group-id="2,10" node-id="361" stroke-linecap="butt" stroke-opacity="0.46" stroke-width="1" target-height="4.737503" target-width="12.899994" target-x="263.4" target-y="172.0625"></path><path d="M 283.20 180.90 C 283.20 180.90 284.10 181.20 285.60 181.80 C 286.40 182.10 287.30 182.50 288.30 183.00 C 288.80 183.20 289.40 183.50 290.00 183.70 C 290.60 184.00 291.20 184.30 291.80 184.60 C 293.00 185.20 294.40 186.00 295.80 186.80 C 297.20 187.60 298.70 188.40 300.10 189.40 C 301.60 190.40 303.10 191.30 304.60 192.40 C 306.10 193.50 307.60 194.60 309.10 195.70 C 310.50 196.90 312.00 198.10 313.40 199.30 C 314.80 200.50 316.10 201.80 317.40 203.00 C 318.70 204.20 319.80 205.40 320.90 206.60 C 322.00 207.80 323.00 208.90 323.90 210.00 C 324.40 210.50 324.80 211.00 325.20 211.50 C 325.60 212.00 326.00 212.50 326.30 212.90 C 327.00 213.80 327.60 214.60 328.10 215.30 C 328.60 216.00 328.90 216.50 329.20 216.90 C 329.40 217.30 329.60 217.50 329.60 217.50 L 329.50 217.60 C 329.50 217.60 328.90 216.90 327.80 215.70 C 327.30 215.10 326.60 214.30 325.90 213.50 C 325.10 212.70 324.30 211.70 323.30 210.70 C 322.40 209.70 321.30 208.60 320.20 207.50 C 319.10 206.40 317.80 205.20 316.60 204.00 C 315.30 202.80 314.00 201.60 312.60 200.50 C 311.20 199.30 309.80 198.20 308.30 197.00 C 306.80 195.90 305.40 194.70 303.90 193.60 C 302.40 192.50 301.00 191.50 299.50 190.50 C 298.00 189.50 296.70 188.60 295.30 187.80 C 293.90 187.00 292.70 186.20 291.50 185.50 C 290.30 184.80 289.20 184.20 288.20 183.60 C 287.20 183.10 286.30 182.60 285.60 182.20 C 284.20 181.50 283.30 181.00 283.30 181.00 L 283.20 180.90 Z" fill="#659feb" fill-opacity="0.46" fill-rule="nonzero" group-id="2,10" node-id="363" stroke-linecap="butt" stroke-opacity="0.46" stroke-width="1" target-height="36.700012" target-width="46.399994" target-x="283.2" target-y="180.9"></path><path d="M 255.60 186.10 C 255.60 186.10 256.40 186.10 257.70 186.10 C 258.40 186.10 259.20 186.20 260.10 186.30 C 260.60 186.30 261.10 186.40 261.60 186.40 C 262.10 186.50 262.70 186.60 263.20 186.70 C 264.30 186.90 265.50 187.10 266.80 187.40 C 268.10 187.70 269.40 188.00 270.80 188.50 C 272.20 189.00 273.60 189.40 275.00 190.00 C 276.40 190.50 277.80 191.20 279.20 191.90 C 280.50 192.60 281.90 193.30 283.20 194.10 C 284.50 194.80 285.70 195.70 286.90 196.50 C 288.10 197.40 289.20 198.20 290.10 199.10 C 291.10 200.00 292.00 200.80 292.80 201.60 C 293.20 202.00 293.60 202.40 294.00 202.70 C 294.30 203.10 294.70 203.50 295.00 203.80 C 295.60 204.50 296.20 205.10 296.60 205.60 C 297.00 206.10 297.30 206.50 297.50 206.80 C 297.70 207.10 297.80 207.20 297.80 207.20 L 297.70 207.30 C 297.70 207.30 297.20 206.80 296.20 205.80 C 295.70 205.30 295.20 204.80 294.50 204.20 C 293.80 203.60 293.10 202.90 292.20 202.20 C 291.40 201.50 290.40 200.70 289.40 199.90 C 288.40 199.10 287.20 198.30 286.10 197.50 C 284.90 196.70 283.70 195.90 282.40 195.20 C 281.10 194.40 279.80 193.80 278.50 193.10 C 277.10 192.50 275.80 191.80 274.40 191.20 C 273.10 190.60 271.70 190.10 270.40 189.60 C 269.10 189.20 267.80 188.70 266.50 188.40 C 265.30 188.00 264.10 187.70 263.00 187.50 C 261.90 187.20 260.90 187.00 260.00 186.90 C 259.10 186.70 258.30 186.60 257.70 186.50 C 256.40 186.30 255.70 186.20 255.70 186.20 L 255.60 186.10 Z" fill="#659feb" fill-opacity="0.46" fill-rule="nonzero" group-id="2,10" node-id="365" stroke-linecap="butt" stroke-opacity="0.46" stroke-width="1" target-height="21.199997" target-width="42.19998" target-x="255.6" target-y="186.1"></path><path d="M 305.30 215.60 C 305.30 215.60 306.60 216.10 308.20 217.00 C 309.00 217.50 310.00 218.10 311.00 218.70 C 311.50 219.00 312.00 219.40 312.50 219.80 C 313.00 220.20 313.50 220.60 314.00 221.00 C 314.50 221.40 315.00 221.80 315.40 222.20 C 315.90 222.60 316.30 223.00 316.80 223.40 C 317.70 224.20 318.40 225.00 319.10 225.80 C 320.40 227.20 321.10 228.40 321.10 228.40 L 321.00 228.50 C 321.00 228.50 317.00 225.30 313.10 222.20 C 309.20 219.00 305.30 215.70 305.30 215.70 L 305.30 215.60 Z" fill="#659feb" fill-opacity="0.46" fill-rule="nonzero" group-id="2,10" node-id="367" stroke-linecap="butt" stroke-opacity="0.46" stroke-width="1" target-height="12.899994" target-width="15.800018" target-x="305.3" target-y="215.6"></path><path d="M 244.70 216.30 C 244.70 216.30 246.00 216.60 248.10 217.20 C 249.20 217.50 250.50 217.90 252.00 218.40 C 253.50 218.90 255.20 219.50 257.00 220.20 C 257.90 220.60 258.80 220.90 259.80 221.30 C 260.80 221.70 261.80 222.10 262.80 222.60 C 264.80 223.50 267.00 224.50 269.10 225.60 C 270.20 226.20 271.30 226.70 272.40 227.40 C 273.50 228.00 274.60 228.60 275.70 229.30 C 277.90 230.60 280.10 232.00 282.30 233.40 C 284.40 234.90 286.50 236.40 288.60 238.00 C 289.60 238.80 290.60 239.60 291.60 240.30 C 292.60 241.10 293.50 241.90 294.50 242.70 C 295.40 243.50 296.30 244.30 297.20 245.10 C 298.10 245.90 298.90 246.70 299.70 247.50 C 301.30 249.00 302.80 250.60 304.10 252.00 C 305.50 253.40 306.60 254.70 307.70 255.90 C 308.70 257.10 309.60 258.10 310.40 259.00 C 311.10 259.80 311.70 260.50 312.10 261.00 C 312.50 261.50 312.70 261.70 312.70 261.70 L 312.60 261.80 C 312.60 261.80 311.70 260.90 310.10 259.30 C 308.50 257.70 306.30 255.40 303.50 252.70 C 302.10 251.40 300.60 249.90 299.00 248.40 C 297.40 246.90 295.60 245.40 293.70 243.80 C 292.80 243.00 291.80 242.30 290.80 241.50 C 289.80 240.70 288.80 240.00 287.80 239.20 C 285.80 237.70 283.70 236.20 281.50 234.80 C 279.40 233.40 277.20 232.00 275.00 230.70 C 273.90 230.00 272.80 229.40 271.80 228.80 C 270.70 228.20 269.70 227.60 268.60 227.00 C 267.50 226.40 266.50 225.90 265.50 225.30 C 264.50 224.80 263.50 224.20 262.50 223.80 C 261.50 223.30 260.50 222.90 259.60 222.40 C 258.60 222.00 257.70 221.60 256.80 221.20 C 253.30 219.70 250.20 218.50 248.10 217.80 C 246.00 217.10 244.80 216.60 244.80 216.60 L 244.70 216.30 Z" fill="#659feb" fill-opacity="0.46" fill-rule="nonzero" group-id="2,10" node-id="369" stroke-linecap="butt" stroke-opacity="0.46" stroke-width="1" target-height="45.499985" target-width="68.000015" target-x="244.7" target-y="216.3"></path><path d="M 240.00 228.90 C 240.00 228.90 241.60 229.00 243.80 229.60 C 244.90 229.90 246.20 230.30 247.50 230.80 C 248.20 231.10 248.90 231.30 249.50 231.60 C 250.20 231.90 250.90 232.20 251.60 232.60 C 252.30 233.00 252.90 233.30 253.60 233.70 C 254.30 234.10 254.90 234.50 255.50 234.80 C 256.70 235.60 257.80 236.40 258.70 237.10 C 260.50 238.50 261.50 239.70 261.50 239.70 L 261.40 239.80 C 261.40 239.80 260.10 239.00 258.20 237.80 C 256.30 236.60 253.60 235.20 251.00 233.80 C 248.30 232.40 245.60 231.20 243.50 230.30 C 241.40 229.40 240.00 228.90 240.00 228.90 L 240.00 228.90 Z" fill="#659feb" fill-opacity="0.46" fill-rule="nonzero" group-id="2,10" node-id="371" stroke-linecap="butt" stroke-opacity="0.46" stroke-width="1" target-height="10.900009" target-width="21.5" target-x="240" target-y="228.9"></path><path d="M 270.60 247.50 C 270.60 247.50 271.10 247.80 272.10 248.40 C 273.00 249.00 274.30 249.80 275.90 250.80 C 277.40 251.80 279.20 253.00 281.10 254.40 C 282.00 255.10 283.00 255.80 283.90 256.50 C 284.90 257.20 285.80 258.00 286.80 258.70 C 287.70 259.50 288.70 260.20 289.60 261.00 C 290.50 261.80 291.40 262.50 292.30 263.30 C 294.00 264.80 295.60 266.20 297.00 267.50 C 298.30 268.80 299.40 269.90 300.20 270.60 C 300.60 271.00 300.90 271.30 301.10 271.50 C 301.30 271.70 301.40 271.80 301.40 271.80 L 301.30 271.90 C 301.30 271.90 293.60 265.80 285.90 259.80 C 278.30 253.70 270.60 247.50 270.60 247.50 L 270.60 247.50 Z" fill="#659feb" fill-opacity="0.46" fill-rule="nonzero" group-id="2,10" node-id="373" stroke-linecap="butt" stroke-opacity="0.46" stroke-width="1" target-height="24.399994" target-width="30.799988" target-x="270.6" target-y="247.5"></path><path d="M 249.00 265.40 C 249.00 265.40 249.30 265.40 249.70 265.30 C 250.10 265.30 250.90 265.30 251.60 265.50 C 252.00 265.60 252.40 265.70 252.80 265.80 C 253.20 265.90 253.70 266.10 254.10 266.30 C 254.50 266.50 255.00 266.70 255.50 266.90 C 256.00 267.10 256.40 267.40 256.80 267.70 C 257.20 268.00 257.60 268.30 258.10 268.60 C 258.50 268.90 258.90 269.30 259.20 269.60 C 259.60 269.90 259.90 270.30 260.20 270.60 C 260.50 270.90 260.80 271.20 261.00 271.60 C 262.00 272.80 262.40 273.80 262.40 273.80 L 262.30 273.90 C 262.30 273.90 261.60 273.20 260.40 272.30 C 259.20 271.30 257.60 270.10 256.00 269.10 C 254.30 268.00 252.60 267.00 251.20 266.50 C 250.50 266.20 249.90 266.00 249.50 265.90 C 249.10 265.80 248.80 265.70 248.80 265.70 L 249.00 265.40 Z" fill="#659feb" fill-opacity="0.46" fill-rule="nonzero" group-id="2,10" node-id="375" stroke-linecap="butt" stroke-opacity="0.46" stroke-width="1" target-height="8.600006" target-width="13.599991" target-x="248.8" target-y="265.3"></path><path d="M 267.20 278.40 C 267.20 278.40 268.60 279.20 270.50 280.60 C 271.40 281.30 272.50 282.10 273.60 283.10 C 274.10 283.60 274.70 284.00 275.30 284.60 C 275.90 285.10 276.40 285.60 277.00 286.20 C 277.50 286.70 278.10 287.30 278.60 287.80 C 279.10 288.30 279.60 288.90 280.10 289.40 C 281.10 290.50 282.00 291.50 282.70 292.40 C 284.20 294.20 285.00 295.60 285.00 295.60 L 284.90 295.70 C 284.90 295.70 280.40 291.40 276.00 287.20 C 271.60 282.90 267.20 278.60 267.20 278.60 L 267.20 278.40 Z" fill="#659feb" fill-opacity="0.46" fill-rule="nonzero" group-id="2,10" node-id="377" stroke-linecap="butt" stroke-opacity="0.46" stroke-width="1" target-height="17.300018" target-width="17.799988" target-x="267.2" target-y="278.4"></path><path d="M 351.00 225.70 C 351.00 225.70 352.00 225.40 353.50 225.40 C 354.30 225.40 355.10 225.40 356.10 225.50 C 356.60 225.60 357.00 225.60 357.50 225.70 C 358.00 225.80 358.50 225.90 359.00 226.00 C 359.50 226.10 360.00 226.30 360.40 226.40 C 360.90 226.50 361.30 226.70 361.80 226.90 C 362.70 227.20 363.50 227.60 364.10 228.00 C 365.40 228.70 366.20 229.40 366.20 229.40 L 366.20 229.50 C 366.20 229.50 362.50 228.20 358.70 227.40 C 354.90 226.40 351.00 225.90 351.00 225.90 L 351.00 225.70 Z" fill="#659feb" fill-opacity="0.46" fill-rule="nonzero" group-id="2,10" node-id="379" stroke-linecap="butt" stroke-opacity="0.46" stroke-width="1" target-height="4.100006" target-width="15.200012" target-x="351" target-y="225.4"></path><path d="M 375.50 232.20 C 375.50 232.20 376.20 232.30 377.50 232.50 C 378.10 232.60 378.90 232.70 379.80 232.90 C 380.30 233.00 380.70 233.10 381.20 233.20 C 381.70 233.30 382.20 233.50 382.80 233.60 C 383.90 233.90 385.10 234.20 386.30 234.60 C 387.50 234.90 388.80 235.40 390.20 235.90 C 391.50 236.40 392.90 236.90 394.20 237.50 C 395.60 238.10 396.90 238.70 398.30 239.40 C 399.60 240.10 401.00 240.80 402.20 241.50 C 403.50 242.20 404.70 243.00 405.90 243.80 C 407.10 244.60 408.20 245.30 409.20 246.10 C 410.20 246.90 411.20 247.60 412.10 248.30 C 413.00 249.00 413.80 249.70 414.40 250.30 C 415.10 250.90 415.70 251.40 416.10 251.90 C 416.60 252.30 416.90 252.70 417.20 253.00 C 417.40 253.30 417.60 253.40 417.60 253.40 L 417.50 253.50 C 417.50 253.50 416.90 253.00 415.90 252.20 C 415.40 251.80 414.80 251.30 414.00 250.80 C 413.30 250.30 412.50 249.70 411.50 249.00 C 410.60 248.40 409.60 247.70 408.50 247.00 C 407.40 246.30 406.30 245.60 405.10 244.90 C 403.90 244.20 402.70 243.50 401.40 242.80 C 400.10 242.10 398.80 241.40 397.50 240.70 C 396.20 240.10 394.80 239.40 393.50 238.80 C 392.20 238.20 390.80 237.60 389.60 237.10 C 388.30 236.60 387.10 236.10 385.90 235.70 C 384.70 235.30 383.60 234.90 382.50 234.50 C 381.40 234.10 380.50 233.90 379.60 233.60 C 378.70 233.30 378.00 233.10 377.30 233.00 C 376.00 232.70 375.30 232.50 375.30 232.50 L 375.50 232.20 Z" fill="#659feb" fill-opacity="0.46" fill-rule="nonzero" group-id="2,10" node-id="381" stroke-linecap="butt" stroke-opacity="0.46" stroke-width="1" target-height="21.300003" target-width="42.30002" target-x="375.3" target-y="232.2"></path><path d="M 344.40 240.90 C 344.40 240.90 344.90 240.80 345.80 240.80 C 346.20 240.80 346.80 240.80 347.40 240.70 C 348.00 240.70 348.70 240.70 349.50 240.70 C 351.00 240.70 352.80 240.90 354.60 241.30 C 355.50 241.50 356.50 241.60 357.50 241.90 C 358.50 242.10 359.40 242.40 360.40 242.70 C 361.40 243.00 362.30 243.40 363.20 243.70 C 364.10 244.00 365.00 244.50 365.90 244.90 C 367.60 245.70 369.10 246.60 370.40 247.40 C 371.00 247.80 371.60 248.20 372.10 248.60 C 372.60 249.00 373.00 249.30 373.40 249.60 C 373.70 249.90 374.00 250.10 374.20 250.30 C 374.40 250.50 374.50 250.50 374.50 250.50 L 374.40 250.60 C 374.40 250.60 374.00 250.30 373.20 249.90 C 372.50 249.50 371.40 248.80 370.00 248.20 C 369.30 247.90 368.60 247.50 367.80 247.10 C 367.00 246.70 366.20 246.40 365.40 246.00 C 363.70 245.30 361.80 244.60 359.90 244.00 C 358.00 243.40 356.10 242.90 354.30 242.40 C 353.40 242.20 352.50 242.00 351.70 241.80 C 350.90 241.60 350.10 241.50 349.30 241.40 C 347.80 241.20 346.60 241.00 345.70 241.00 C 344.80 240.90 344.30 240.90 344.30 240.90 L 344.40 240.90 Z" fill="#659feb" fill-opacity="0.46" fill-rule="nonzero" group-id="2,10" node-id="383" stroke-linecap="butt" stroke-opacity="0.46" stroke-width="1" target-height="9.900009" target-width="30.200012" target-x="344.3" target-y="240.7"></path><path d="M 384.90 254.70 C 384.90 254.70 385.40 254.80 386.30 255.10 C 387.20 255.40 388.40 255.70 389.90 256.20 C 391.40 256.70 393.00 257.40 394.80 258.20 C 395.70 258.60 396.60 259.00 397.50 259.50 C 398.40 260.00 399.30 260.40 400.20 260.90 C 401.10 261.40 402.00 261.90 402.90 262.40 C 403.80 262.90 404.60 263.50 405.40 264.00 C 407.00 265.00 408.50 266.10 409.70 267.00 C 410.90 267.90 411.90 268.80 412.60 269.40 C 412.90 269.70 413.20 269.90 413.40 270.10 C 413.60 270.30 413.70 270.40 413.70 270.40 L 413.60 270.50 C 413.60 270.50 411.90 269.40 409.30 267.80 C 406.70 266.20 403.10 264.20 399.50 262.30 C 395.90 260.30 392.30 258.50 389.50 257.20 C 386.70 255.90 384.90 255.00 384.90 255.00 L 384.90 254.70 Z" fill="#659feb" fill-opacity="0.46" fill-rule="nonzero" group-id="2,10" node-id="385" stroke-linecap="butt" stroke-opacity="0.46" stroke-width="1" target-height="15.800003" target-width="28.800018" target-x="384.9" target-y="254.7"></path><path d="M 335.00 258.70 C 335.00 258.70 336.10 258.60 337.60 258.80 C 338.40 258.90 339.20 259.00 340.10 259.30 C 340.50 259.40 341.00 259.50 341.50 259.70 C 342.00 259.80 342.40 260.00 342.90 260.10 C 343.40 260.30 343.80 260.50 344.30 260.60 C 344.80 260.80 345.20 261.00 345.60 261.20 C 346.40 261.60 347.20 262.00 347.90 262.40 C 349.20 263.20 350.00 263.90 350.00 263.90 L 350.00 264.00 C 350.00 264.00 346.30 262.70 342.50 261.50 C 338.80 260.20 335.10 258.80 335.10 258.80 L 335.00 258.70 Z" fill="#659feb" fill-opacity="0.46" fill-rule="nonzero" group-id="2,10" node-id="387" stroke-linecap="butt" stroke-opacity="0.46" stroke-width="1" target-height="5.3249817" target-width="15" target-x="335" target-y="258.67502"></path><path d="M 355.40 266.60 C 355.40 266.60 355.50 266.60 355.80 266.50 C 356.00 266.50 356.30 266.50 356.70 266.50 C 357.00 266.50 357.40 266.60 357.80 266.70 C 358.00 266.80 358.20 266.80 358.40 266.90 C 358.60 267.00 358.80 267.00 359.00 267.10 C 359.20 267.20 359.40 267.30 359.50 267.40 C 359.70 267.50 359.80 267.60 360.00 267.70 C 360.30 267.90 360.60 268.10 360.90 268.40 C 361.40 268.90 361.70 269.40 361.70 269.40 L 361.70 269.50 C 361.70 269.50 361.30 269.40 360.60 269.30 C 360.00 269.10 359.10 268.90 358.30 268.50 C 357.50 268.10 356.70 267.70 356.20 267.40 C 355.60 267.10 355.30 266.80 355.30 266.80 L 355.40 266.60 Z" fill="#659feb" fill-opacity="0.46" fill-rule="nonzero" group-id="2,10" node-id="389" stroke-linecap="butt" stroke-opacity="0.46" stroke-width="1" target-height="3" target-width="6.4000244" target-x="355.3" target-y="266.5"></path><path d="M 321.20 283.70 C 321.20 283.70 322.40 283.80 324.40 284.10 C 325.40 284.20 326.60 284.40 328.00 284.70 C 328.70 284.80 329.40 285.00 330.20 285.10 C 331.00 285.30 331.80 285.50 332.60 285.60 C 334.30 286.00 336.10 286.40 338.10 287.00 C 340.00 287.50 342.10 288.10 344.20 288.80 C 346.30 289.50 348.40 290.30 350.50 291.10 C 352.70 291.90 354.80 292.80 357.00 293.80 C 359.10 294.80 361.20 295.80 363.20 296.90 C 365.30 297.90 367.20 299.10 369.10 300.10 C 371.00 301.20 372.80 302.30 374.40 303.50 C 376.10 304.60 377.60 305.70 379.00 306.70 C 379.70 307.20 380.40 307.70 381.00 308.20 C 381.60 308.70 382.20 309.20 382.80 309.60 C 383.90 310.50 384.90 311.30 385.60 311.90 C 386.40 312.60 387.00 313.10 387.40 313.50 C 387.80 313.90 388.00 314.10 388.00 314.10 L 387.90 314.20 C 387.90 314.20 387.00 313.50 385.40 312.30 C 384.60 311.70 383.60 311.00 382.40 310.20 C 381.30 309.40 379.90 308.50 378.50 307.50 C 377.10 306.50 375.50 305.50 373.80 304.50 C 372.10 303.40 370.30 302.40 368.40 301.30 C 366.50 300.30 364.50 299.20 362.50 298.20 C 360.50 297.10 358.40 296.20 356.30 295.20 C 354.20 294.30 352.10 293.30 349.90 292.50 C 347.80 291.60 345.70 290.90 343.60 290.10 C 341.50 289.40 339.60 288.70 337.70 288.10 C 335.80 287.50 334.00 287.00 332.30 286.50 C 330.60 286.00 329.10 285.60 327.70 285.30 C 326.30 285.00 325.10 284.70 324.10 284.50 C 322.10 284.10 321.00 283.80 321.00 283.80 L 321.20 283.70 Z" fill="#659feb" fill-opacity="0.46" fill-rule="nonzero" group-id="2,10" node-id="391" stroke-linecap="butt" stroke-opacity="0.46" stroke-width="1" target-height="30.5" target-width="67" target-x="321" target-y="283.7"></path><path d="M 339.70 302.90 C 339.70 302.90 340.00 302.80 340.40 302.60 C 340.60 302.50 341.00 302.50 341.30 302.40 C 341.70 302.30 342.10 302.30 342.50 302.30 C 343.00 302.30 343.40 302.40 343.90 302.40 C 344.40 302.50 344.90 302.60 345.40 302.80 C 345.90 303.00 346.50 303.10 347.00 303.40 C 347.50 303.60 348.00 303.90 348.50 304.10 C 349.00 304.40 349.50 304.70 350.00 305.00 C 350.50 305.30 350.90 305.60 351.30 305.90 C 351.70 306.20 352.10 306.50 352.50 306.80 C 352.90 307.10 353.20 307.40 353.50 307.70 C 354.70 308.90 355.40 309.80 355.40 309.80 L 355.30 309.90 C 355.30 309.90 354.40 309.30 353.00 308.40 C 351.60 307.50 349.80 306.30 347.80 305.30 C 346.80 304.80 345.90 304.30 344.90 303.90 C 344.00 303.50 343.00 303.20 342.20 303.10 C 341.80 303.00 341.40 302.90 341.10 302.90 C 340.80 302.90 340.50 302.80 340.20 302.80 C 339.70 302.80 339.40 302.80 339.40 302.80 L 339.70 302.90 Z" fill="#659feb" fill-opacity="0.46" fill-rule="nonzero" group-id="2,10" node-id="393" stroke-linecap="butt" stroke-opacity="0.46" stroke-width="1" target-height="7.600006" target-width="16" target-x="339.4" target-y="302.3"></path><path d="M 362.50 313.30 C 362.50 313.30 364.00 313.60 366.00 314.40 C 367.00 314.80 368.20 315.30 369.40 315.80 C 370.00 316.10 370.60 316.40 371.30 316.70 C 371.90 317.00 372.60 317.40 373.20 317.70 C 373.80 318.10 374.40 318.40 375.00 318.80 C 375.60 319.10 376.20 319.50 376.70 319.90 C 377.80 320.60 378.80 321.30 379.70 322.00 C 381.40 323.30 382.50 324.40 382.50 324.40 L 382.40 324.50 C 382.40 324.50 377.40 321.80 372.40 319.00 C 367.40 316.20 362.50 313.40 362.50 313.40 L 362.50 313.30 Z" fill="#659feb" fill-opacity="0.46" fill-rule="nonzero" group-id="2,10" node-id="395" stroke-linecap="butt" stroke-opacity="0.46" stroke-width="1" target-height="11.200012" target-width="20" target-x="362.5" target-y="313.3"></path><path d="M 150.90 181.60 C 148.60 213.50 198.70 231.30 198.70 231.30 L 210.00 234.30 C 220.00 240.50 225.00 241.30 225.00 241.30 L 218.40 237.40 L 228.50 240.60 C 228.80 240.70 228.10 240.00 227.90 239.80 L 220.20 235.70 L 230.60 238.30 C 230.80 238.40 231.00 238.00 230.70 237.90 L 221.00 233.00 C 221.00 233.00 231.00 235.30 230.10 234.40 C 229.30 233.50 219.50 229.60 219.50 229.60 C 219.50 229.60 222.70 224.80 222.40 224.40 C 221.90 223.70 218.50 225.70 215.00 226.30 C 212.80 226.60 196.10 219.60 196.10 219.60 C 183.30 213.90 166.80 199.50 168.70 179.00 C 168.70 179.00 167.90 172.20 159.70 171.50 C 151.40 170.70 150.90 181.60 150.90 181.60 Z" fill="#ffa47a" fill-rule="nonzero" group-id="2" node-id="398" stroke="#ffa47a" stroke-linecap="round" stroke-width="1.0363" target-height="69.8" target-width="79.9375" target-x="150.9" target-y="171.5"></path><path d="M 179.20 206.70 C 172.80 199.50 170.90 191.70 168.70 178.90 C 168.70 178.90 167.90 172.10 159.70 171.40 C 151.40 170.70 151.00 181.60 151.00 181.60 C 150.20 192.30 150.70 198.80 157.90 206.20 L 179.20 206.70 Z" fill="#ff7f4d" fill-rule="nonzero" group-id="2" node-id="400" stroke="#ff7f4d" stroke-linecap="butt" stroke-width="0.4182" target-height="35.300003" target-width="28.469116" target-x="150.73088" target-y="171.4"></path><path d="M 179.90 207.20 L 164.00 211.00 C 164.00 211.00 161.40 208.80 160.00 206.80 L 179.90 207.20 Z" fill="#cf5540" fill-rule="nonzero" group-id="2" node-id="402" stroke="none" target-height="4.199997" target-width="19.899994" target-x="160" target-y="206.8"></path></g><g node-id="427"><path d="M 266.60 313.90 C 260.20 331.80 247.80 343.20 230.00 341.90 C 215.70 340.90 202.50 334.40 189.70 328.00 C 185.30 325.80 180.80 323.60 177.50 319.90 C 172.60 314.60 171.10 307.10 169.70 300.00 C 168.30 292.90 167.00 285.90 165.60 278.80 C 164.60 273.40 163.40 267.90 160.30 263.40 C 157.10 258.90 151.40 255.80 146.10 257.50 C 140.90 259.20 138.20 266.90 142.30 270.50 C 151.00 265.30 150.40 252.50 147.50 242.90 C 142.60 226.70 134.10 211.70 122.90 199.00 C 115.20 190.30 105.30 182.40 93.70 181.90 C 78.70 181.20 66.10 193.00 57.50 205.20 C 48.60 217.90 41.70 232.60 40.70 248.10 C 40.20 255.90 41.70 264.70 48.00 269.40 C 54.20 274.10 65.70 270.90 66.00 263.10" fill="none" group-id="3" node-id="407" stroke="#ff7f4d" stroke-dasharray="6.3861 6.3861" stroke-linecap="round" stroke-width="1.4897" target-height="160.04745" target-width="225.97069" target-x="40.629314" target-y="181.9"></path><path d="M 417.60 250.90 C 421.80 252.60 426.80 251.70 430.60 249.30 C 434.50 246.90 437.40 243.30 439.90 239.40 C 443.30 234.00 446.00 227.60 444.70 221.40 C 444.00 218.10 442.20 215.20 440.30 212.50 C 437.90 209.10 435.10 205.90 431.60 203.50 C 424.80 198.80 415.50 198.10 408.00 201.50 C 400.50 205.00 395.10 212.60 394.20 220.80" fill="none" group-id="3" node-id="409" stroke="#f8f1ee" stroke-dasharray="5.15 5.15" stroke-linecap="round" stroke-width="1.4897" target-height="52.39119" target-width="50.83191" target-x="394.2" target-y="199.38777"></path><path d="M 474.90 294.00 C 474.90 295.66 473.56 297.00 471.90 297.00 C 470.24 297.00 468.90 295.66 468.90 294.00 C 468.90 292.34 470.24 291.00 471.90 291.00 C 473.56 291.00 474.90 292.34 474.90 294.00 Z" fill="#659feb" fill-rule="nonzero" group-id="3" node-id="411" stroke="none" target-height="6" target-width="6" target-x="468.9" target-y="291"></path><path d="M 445.20 283.20 C 445.20 285.41 443.41 287.20 441.20 287.20 C 438.99 287.20 437.20 285.41 437.20 283.20 C 437.20 280.99 438.99 279.20 441.20 279.20 C 443.41 279.20 445.20 280.99 445.20 283.20 Z" fill="none" group-id="3" node-id="413" stroke="#659feb" stroke-linecap="butt" stroke-width="0.7449" target-height="8" target-width="8" target-x="437.2" target-y="279.2"></path><path d="M 309.00 155.40 C 309.00 157.44 307.34 159.10 305.30 159.10 C 303.26 159.10 301.60 157.44 301.60 155.40 C 301.60 153.36 303.26 151.70 305.30 151.70 C 307.34 151.70 309.00 153.36 309.00 155.40 Z" fill="#ff7f4d" fill-rule="nonzero" group-id="3" node-id="415" stroke="none" target-height="7.400009" target-width="7.399994" target-x="301.6" target-y="151.7"></path><path d="M 285.00 341.10 C 285.00 343.31 283.21 345.10 281.00 345.10 C 278.79 345.10 277.00 343.31 277.00 341.10 C 277.00 338.89 278.79 337.10 281.00 337.10 C 283.21 337.10 285.00 338.89 285.00 341.10 Z" fill="none" group-id="3" node-id="417" stroke="#ff7f4d" stroke-linecap="butt" stroke-width="0.7449" target-height="8" target-width="8" target-x="277" target-y="337.1"></path><path d="M 184.80 249.70 C 184.80 252.30 182.70 254.40 180.10 254.40 C 177.50 254.40 175.40 252.30 175.40 249.70 C 175.40 247.10 177.50 245.00 180.10 245.00 C 182.70 245.00 184.80 247.10 184.80 249.70 Z" fill="#659feb" fill-rule="nonzero" group-id="3" node-id="419" stroke="#659feb" stroke-dasharray="6.3861 6.3861" stroke-linecap="round" stroke-width="0.7449" target-height="9.399994" target-width="9.400009" target-x="175.4" target-y="245"></path><path d="M 101.00 307.20 C 101.00 308.91 99.61 310.30 97.90 310.30 C 96.19 310.30 94.80 308.91 94.80 307.20 C 94.80 305.49 96.19 304.10 97.90 304.10 C 99.61 304.10 101.00 305.49 101.00 307.20 Z" fill="#ff7f4d" fill-rule="nonzero" group-id="3" node-id="421" stroke="none" target-height="6.1999817" target-width="6.199997" target-x="94.8" target-y="304.1"></path><path d="M 32.00 279.30 C 32.00 281.29 30.39 282.90 28.40 282.90 C 26.41 282.90 24.80 281.29 24.80 279.30 C 24.80 277.31 26.41 275.70 28.40 275.70 C 30.39 275.70 32.00 277.31 32.00 279.30 Z" fill="none" group-id="3" node-id="423" stroke="#659feb" stroke-linecap="butt" stroke-width="0.6658" target-height="7.1999817" target-width="7.200001" target-x="24.8" target-y="275.7"></path></g></svg>