<svg width="4000" height="4000" viewBox="0 0 4000 4000" fill="none" xmlns="http://www.w3.org/2000/svg">
<path fill-rule="evenodd" clip-rule="evenodd" d="M1000 1980V1540.4C1000 1513.88 1010.54 1488.44 1029.29 1469.69L1469.69 1029.29C1488.44 1010.54 1513.88 1000 1540.4 1000H1980C1991.05 1000 2000 1008.95 2000 1020V1458.24C2000 1484.76 1989.46 1510.2 1970.71 1528.95L1528.95 1970.71C1510.2 1989.46 1484.76 2000 1458.24 2000H1020C1008.95 2000 1000 1991.05 1000 1980ZM2000 1540.4V1980C2000 1991.05 2008.95 2000 2020 2000H2458.24C2484.76 2000 2510.2 1989.46 2528.95 1970.71L2970.71 1528.95C2989.46 1510.2 3000 1484.76 3000 1458.24V1020C3000 1008.95 2991.05 1000 2980 1000H2540.4C2513.88 1000 2488.44 1010.54 2469.69 1029.29L2029.29 1469.69C2010.54 1488.44 2000 1513.88 2000 1540.4ZM2000 2540.4V2980C2000 2991.05 2008.95 3000 2020 3000H2458.24C2484.76 3000 2510.2 2989.46 2528.95 2970.71L2970.71 2528.95C2989.46 2510.2 3000 2484.76 3000 2458.24V2020C3000 2008.95 2991.05 2000 2980 2000H2540.4C2513.88 2000 2488.44 2010.54 2469.69 2029.29L2029.29 2469.69C2010.54 2488.44 2000 2513.88 2000 2540.4ZM1000 2540.4V2980C1000 2991.05 1008.95 3000 1020 3000H1458.24C1484.76 3000 1510.2 2989.46 1528.95 2970.71L1970.71 2528.95C1989.46 2510.2 2000 2484.76 2000 2458.24V2020C2000 2008.95 1991.05 2000 1980 2000H1540.4C1513.88 2000 1488.44 2010.54 1469.69 2029.29L1029.29 2469.69C1010.54 2488.44 1000 2513.88 1000 2540.4Z" fill="url(#paint0_linear_53_2)"/>
<defs>
<linearGradient id="paint0_linear_53_2" x1="1000" y1="2500" x2="2000" y2="2500" gradientUnits="userSpaceOnUse">
<stop stop-color="#EC6366"/>
<stop offset="0.498635" stop-color="#EE7958"/>
<stop offset="1" stop-color="#EE7959"/>
</linearGradient>
</defs>
</svg>
