<svg width="2000" height="2000" viewBox="0 0 2000 2000" fill="none" xmlns="http://www.w3.org/2000/svg">
<path fill-rule="evenodd" clip-rule="evenodd" d="M0 980V540.402C0 513.88 10.5357 488.445 29.2893 469.691L469.691 29.2893C488.445 10.5357 513.88 0 540.402 0H980C991.046 0 1000 8.9543 1000 20V458.239C1000 484.76 989.464 510.196 970.711 528.949L528.949 970.711C510.196 989.464 484.76 1000 458.239 1000H20C8.95429 1000 0 991.046 0 980ZM1000 540.402V980C1000 991.046 1008.95 1000 1020 1000H1458.24C1484.76 1000 1510.2 989.464 1528.95 970.711L1970.71 528.949C1989.46 510.196 2000 484.76 2000 458.239V20C2000 8.9543 1991.05 0 1980 0H1540.4C1513.88 0 1488.44 10.5357 1469.69 29.2893L1029.29 469.691C1010.54 488.445 1000 513.88 1000 540.402ZM1000 1540.4V1980C1000 1991.05 1008.95 2000 1020 2000H1458.24C1484.76 2000 1510.2 1989.46 1528.95 1970.71L1970.71 1528.95C1989.46 1510.2 2000 1484.76 2000 1458.24V1020C2000 1008.95 1991.05 1000 1980 1000H1540.4C1513.88 1000 1488.44 1010.54 1469.69 1029.29L1029.29 1469.69C1010.54 1488.44 1000 1513.88 1000 1540.4ZM0 1540.4V1980C0 1991.05 8.95429 2000 20 2000H458.239C484.76 2000 510.196 1989.46 528.949 1970.71L970.711 1528.95C989.464 1510.2 1000 1484.76 1000 1458.24V1020C1000 1008.95 991.046 1000 980 1000H540.402C513.88 1000 488.445 1010.54 469.691 1029.29L29.2893 1469.69C10.5357 1488.44 0 1513.88 0 1540.4Z" fill="url(#paint0_linear_49_131)"/>
<defs>
<linearGradient id="paint0_linear_49_131" x1="0" y1="1500" x2="1000" y2="1500" gradientUnits="userSpaceOnUse">
<stop stop-color="#EC6366"/>
<stop offset="0.498635" stop-color="#EE7958"/>
<stop offset="1" stop-color="#EE7959"/>
</linearGradient>
</defs>
</svg>
