<?xml version="1.0" standalone="no"?>
<!DOCTYPE svg PUBLIC "-//W3C//DTD SVG 20010904//EN"
 "http://www.w3.org/TR/2001/REC-SVG-20010904/DTD/svg10.dtd">
<svg version="1.0" xmlns="http://www.w3.org/2000/svg"
 width="300.000000pt" height="300.000000pt" viewBox="0 0 300.000000 300.000000"
 preserveAspectRatio="xMidYMid meet">
<metadata>
Created by potrace 1.14, written by Peter Selinger 2001-2017
</metadata>
<g transform="translate(0.000000,300.000000) scale(0.100000,-0.100000)"
fill="#000000" stroke="none">
<path d="M746 2550 c-77 -77 -143 -140 -148 -140 -4 0 -8 -4 -8 -9 0 -5 -37
-44 -81 -87 -45 -44 -108 -105 -140 -137 l-59 -58 0 -278 c0 -269 1 -279 21
-305 12 -15 33 -32 48 -37 14 -6 119 -10 238 -9 153 0 213 -3 219 -11 4 -8
-91 -109 -259 -276 l-267 -263 0 -271 c0 -280 2 -296 43 -332 18 -15 47 -17
292 -17 l272 0 229 231 c126 127 252 252 279 279 l50 49 6 -247 c3 -136 6
-248 7 -250 1 -1 16 -16 32 -32 l31 -30 272 0 273 0 114 116 c63 64 122 124
131 133 9 9 56 55 105 102 49 48 106 104 126 125 20 22 53 55 72 74 l36 34 0
264 c0 374 19 352 -310 352 -198 0 -231 2 -228 15 3 14 69 83 378 390 l160
159 0 257 c0 142 -4 269 -10 283 -5 14 -18 34 -30 46 -19 19 -32 20 -298 20
l-279 0 -281 -282 -282 -283 0 226 c0 254 -3 278 -36 314 l-23 25 -278 0 -278
0 -139 -140z m759 -1002 c39 -53 64 -58 293 -58 130 0 213 -4 217 -10 5 -8
-157 -185 -219 -238 -24 -21 -175 -173 -241 -243 -60 -63 -54 -88 -57 225 -2
173 -6 230 -16 234 -6 2 -10 7 -7 11 2 5 -7 14 -20 21 -14 7 -25 17 -25 22 0
4 -106 8 -235 8 -168 0 -235 3 -235 11 0 11 112 130 210 224 25 24 104 102
175 174 l130 131 5 -243 c5 -222 7 -244 25 -269z"/>
</g>
</svg>
